<svg height="512" viewBox="0 0 511.923 511.923" width="512" xmlns="http://www.w3.org/2000/svg"><path d="M276.91 496.923H78.487c-1.688 0-3.246-.685-4.388-1.928s-1.691-2.854-1.547-4.536l22.259-260.464a7.499 7.499 0 00-6.834-8.111 7.496 7.496 0 00-8.111 6.834l-22.26 260.464c-.499 5.831 1.486 11.647 5.444 15.958s9.584 6.783 15.437 6.783H276.91a7.5 7.5 0 000-15zm177.406-7.741l-30.211-353.511c-.934-10.93-9.91-19.172-20.88-19.172h-67.428V79.836C335.797 35.814 299.983 0 255.961 0s-79.835 35.814-79.835 79.836v36.663h-67.428c-10.97 0-19.947 8.242-20.88 19.173l-4.954 58.027a7.499 7.499 0 006.835 8.11 7.502 7.502 0 008.11-6.834l4.954-58.027a5.922 5.922 0 015.935-5.449h67.428v16.607c-10.139 3.194-17.513 12.683-17.513 23.863 0 13.792 11.221 25.013 25.013 25.013s25.013-11.221 25.013-25.013c0-11.18-7.374-20.669-17.513-23.863v-16.607h129.671v16.607c-10.139 3.194-17.513 12.683-17.513 23.863 0 13.792 11.221 25.013 25.013 25.013s25.013-11.221 25.013-25.013c0-11.18-7.374-20.669-17.513-23.863v-16.607h67.428a5.921 5.921 0 015.935 5.449l30.211 353.511a5.894 5.894 0 01-1.547 4.536 5.891 5.891 0 01-4.388 1.928H311.961a7.5 7.5 0 000 15h121.475c5.852 0 11.479-2.472 15.437-6.783s5.942-10.127 5.443-15.958zM193.639 171.968c0 5.521-4.492 10.013-10.013 10.013s-10.013-4.492-10.013-10.013 4.492-10.013 10.013-10.013c5.521.001 10.013 4.492 10.013 10.013zm-2.513-55.469V79.836c0-35.75 29.085-64.836 64.835-64.836s64.835 29.085 64.835 64.836v36.663zm147.184 55.469c0 5.521-4.492 10.013-10.013 10.013s-10.013-4.492-10.013-10.013 4.492-10.013 10.013-10.013c5.521.001 10.013 4.492 10.013 10.013z"/><path d="M312.207 282.128c4.456-4.344 6.03-10.72 4.106-16.639-1.923-5.918-6.944-10.151-13.102-11.046l-21.952-3.19a1.231 1.231 0 01-.926-.673l-9.817-19.891c-2.754-5.581-8.332-9.047-14.555-9.047s-11.8 3.467-14.555 9.047l-9.816 19.891c-.18.364-.526.615-.927.674l-21.951 3.19c-6.158.895-11.179 5.127-13.102 11.046s-.35 12.294 4.107 16.639l15.884 15.483c.29.283.422.69.354 1.09l-3.75 21.862c-1.052 6.133 1.421 12.216 6.456 15.874 5.034 3.658 11.583 4.132 17.094 1.236l19.634-10.322a1.23 1.23 0 011.145 0l19.634 10.322a16.232 16.232 0 007.568 1.881 16.17 16.17 0 009.526-3.118c5.035-3.658 7.508-9.741 6.456-15.874l-3.75-21.863a1.231 1.231 0 01.354-1.089zm-26.355 4.742a16.226 16.226 0 00-4.667 14.366l3.75 21.863c.032.187.129.753-.489 1.203-.62.45-1.129.182-1.296.094l-19.633-10.321a16.224 16.224 0 00-15.107 0l-19.633 10.322c-.168.088-.677.356-1.297-.094-.619-.45-.521-1.017-.489-1.204l3.75-21.862a16.23 16.23 0 00-4.668-14.367l-15.884-15.483c-.136-.132-.548-.534-.312-1.262s.806-.811.994-.838l21.951-3.19a16.23 16.23 0 0012.221-8.878l9.817-19.891c.083-.17.338-.686 1.104-.686s1.02.516 1.104.686l9.817 19.892a16.229 16.229 0 0012.22 8.878l21.951 3.19c.188.027.757.11.994.838s-.176 1.13-.311 1.262zm-100.227 75.829c-1.911 3.675-.518 8.184 3.157 10.095.8.439 19.617 11.167 21.933 46.451a7.5 7.5 0 1014.969-.983c-2.901-44.202-28.805-58.165-29.907-58.737-3.677-1.912-8.24-.501-10.152 3.174zM323.131 372.8a7.5 7.5 0 003.129-10.081 7.498 7.498 0 00-10.114-3.193c-1.102.573-27.006 14.536-29.907 58.737a7.5 7.5 0 007.492 7.992 7.501 7.501 0 007.477-7.009c2.307-35.156 20.995-45.933 21.923-46.446zm-74.67-12.972v58.926a7.5 7.5 0 0015 0v-58.926a7.5 7.5 0 00-15 0z"/></svg>