<svg height="512" width="512" xmlns="http://www.w3.org/2000/svg"><circle cx="286" cy="136" r="15"/><circle cx="346" cy="136" r="15"/><circle cx="406" cy="136" r="15"/><path d="M337.213 481C361.908 481 382 460.813 382 436v-60a15 15 0 00-10.246-14.227l-89.787-30a15.002 15.002 0 00-13.074 1.746l-38.183 25.455c-40.978-19.444-89.411-67.448-108.675-107.698l25.446-38.169a15.002 15.002 0 001.746-13.074l-30-89.787A15 15 0 00105 100H45c-24.813 0-45 20.091-45 44.787 0 82.877 37.684 167.936 103.39 233.367C169.024 443.514 254.25 481 337.213 481zM45 130h49.197l24.25 72.576-25.927 38.89a14.997 14.997 0 00-1.446 13.891c9.975 24.937 29.937 52.984 56.208 78.975 26.098 25.819 54.282 45.563 79.361 55.594a15.003 15.003 0 0013.891-1.446l38.891-25.927L352 386.803V436c0 8.411-6.495 15-14.787 15C179.3 451 30 302.186 30 144.787 30 136.495 36.589 130 45 130z"/><path d="M280.26 299.858a15.002 15.002 0 0016.347-3.251L352.213 241H406c58.448 0 106-47.103 106-105S464.448 31 406 31H286c-57.897 0-105 47.103-105 105 0 52.805 39.183 96.631 90 103.932V286a15 15 0 009.26 13.858zM211 136c0-41.355 33.645-75 75-75h120c41.906 0 76 33.645 76 75s-34.094 75-76 75h-60c-3.979 0-7.794 1.58-10.606 4.393L301 249.787V226c0-8.284-6.716-15-15-15-41.355 0-75-33.645-75-75z"/></svg>