<svg xmlns="http://www.w3.org/2000/svg" viewBox="0 0 512 512"><path d="M501.333 42.667H138.667c-5.888 0-10.667 4.779-10.667 10.667S132.779 64 138.667 64h362.667C507.221 64 512 59.221 512 53.333s-4.779-10.666-10.667-10.666zm-149.333 64H138.667c-5.888 0-10.667 4.779-10.667 10.667S132.779 128 138.667 128H352c5.888 0 10.667-4.779 10.667-10.667s-4.779-10.666-10.667-10.666zm149.333 106.666H138.667c-5.888 0-10.667 4.779-10.667 10.667s4.779 10.667 10.667 10.667h362.667c5.888 0 10.667-4.779 10.667-10.667s-4.78-10.667-10.668-10.667zm-149.333 64H138.667c-5.888 0-10.667 4.779-10.667 10.667s4.779 10.667 10.667 10.667H352c5.888 0 10.667-4.779 10.667-10.667s-4.779-10.667-10.667-10.667zM501.333 384H138.667c-5.888 0-10.667 4.779-10.667 10.667s4.779 10.667 10.667 10.667h362.667c5.888 0 10.667-4.779 10.667-10.667S507.221 384 501.333 384zM352 448H138.667c-5.888 0-10.667 4.779-10.667 10.667s4.779 10.667 10.667 10.667H352c5.888 0 10.667-4.779 10.667-10.667S357.888 448 352 448z"/><circle cx="42.667" cy="85.333" r="42.667"/><circle cx="42.667" cy="256" r="42.667"/><circle cx="42.667" cy="426.667" r="42.667"/></svg>