<svg xmlns="http://www.w3.org/2000/svg" width="557.969" height="557.968"><path d="M67.34 153.922h423.288c37.185 0 67.341-30.147 67.341-67.34 0-37.195-30.156-67.34-67.341-67.34H67.34C30.157 19.241 0 49.386 0 86.581c0 37.193 30.157 67.341 67.34 67.341zm0-101.819c19.054 0 34.478 15.435 34.478 34.478s-15.426 34.478-34.478 34.478c-19.051 0-34.478-15.435-34.478-34.478-.002-19.045 15.427-34.478 34.478-34.478zm423.288 159.54H67.34c-37.183 0-67.34 30.145-67.34 67.34 0 37.192 30.157 67.34 67.34 67.34h423.288c37.185 0 67.341-30.147 67.341-67.34-.002-37.195-30.159-67.34-67.341-67.34zM67.34 313.459c-19.051 0-34.478-15.435-34.478-34.476 0-19.043 15.427-34.478 34.478-34.478 19.054 0 34.478 15.435 34.478 34.478 0 19.042-15.426 34.476-34.478 34.476zm423.288 90.586H67.34C30.157 404.045 0 434.192 0 471.387c0 37.192 30.157 67.34 67.34 67.34h423.288c37.185 0 67.341-30.146 67.341-67.34-.002-37.196-30.159-67.342-67.341-67.342zM67.34 505.862c-19.051 0-34.478-15.436-34.478-34.477 0-19.044 15.427-34.479 34.478-34.479 19.054 0 34.478 15.435 34.478 34.479 0 19.043-15.426 34.477-34.478 34.477z"/></svg>