<svg xmlns="http://www.w3.org/2000/svg" width="512" height="512"><path d="M378.667 21.333c-56.792 0-103.698 52.75-122.667 77.646-18.969-24.896-65.875-77.646-122.667-77.646C59.813 21.333 0 88.927 0 172c0 45.323 17.99 87.563 49.479 116.469a10.54 10.54 0 001.677 2.177l197.313 196.906c2.083 2.073 4.802 3.115 7.531 3.115s5.458-1.042 7.542-3.125L467.417 283.74l2.104-2.042c1.667-1.573 3.313-3.167 5.156-5.208a10.372 10.372 0 001.896-2.542C499.438 245.948 512 209.833 512 172c0-83.073-59.812-150.667-133.333-150.667z" data-original="#303C42" class="active-path" data-old_color="#303C42" fill="#FB5252"/></svg>