<svg height="512" viewBox="0 0 52 60" width="512" xmlns="http://www.w3.org/2000/svg"><path d="M2 60h48a1.983 1.983 0 001.991-2.01v-4.039c-.332-6.737-4-7.868-4.148-7.91L35 42.253v-5.6A7.152 7.152 0 0037.275 32H40a3 3 0 003-3v-6a3 3 0 00-2-2.816V14c0-7.981-6.448-14-15-14S11 6.019 11 14v6.184A3 3 0 009 23v6a3 3 0 002 2.816V33a4 4 0 004 4h2v5.253L4.165 46.039C4.009 46.083.343 47.214.01 54v3.973A1.984 1.984 0 002 60zm11-43.9A12.7 12.7 0 0126 6a12.747 12.747 0 0113 10.1V20h-1.236c-1-4.215-2.932-5.509-3.153-5.644-2.783-1.67-11.493-1.394-14.756-1.185a3.844 3.844 0 00-2.529 1.079A13.245 13.245 0 0014.312 20H13zm6 22.68C20.636 40.9 21.406 43 24.422 43c4.533 0 5.347.416 7.705-3.013.265-.385.553-.794.874-1.212v4.067c-1.608 4.255-12.427 4.219-14 0zm14.22-3.188C30.1 38.393 30.009 41 27.577 41c-4.319 0-4.29.42-6.056-2.146A23.739 23.739 0 0020.132 37h2.146A1.99 1.99 0 0024 38h4a2 2 0 002-2v-2a2 2 0 00-2-2h-4a2 2 0 00-2 2v1h-3.8c-1.6-1.739-1.56-3.276-1.49-5.17a14.47 14.47 0 00-.287-4.368c-.387-2.019-.63-3.4-.15-5.063a11.188 11.188 0 012.471-4.735c.337-.311.776-.49 1.234-.5 3.252-.209 10.624-.456 13.61.91 1.188.922 2.644 4.119 2.405 6.663-.23 2.413-.737 3.6-.737 5.5-.002 3.108.618 4.963-2.037 7.35zM24 36v-2h4v2zm17-7a1 1 0 01-1 1h-2.7c-.153-4.287.317-3.2.682-7.069.023-.31.029-.62.018-.931h2a1 1 0 011 1zM38.324 9.984C36.18 7 32.428 4 26 4S15.82 7 13.676 9.984C17.4-.695 34.6-.68 38.324 9.984zM11 23a1 1 0 011-1h2.013c.014 1.29.163 2.577.443 3.837.3 1.366.382 2.771.244 4.163H12a1 1 0 01-1-1zm2 10v-1h1.725a6.85 6.85 0 00.963 3H15a2 2 0 01-2-2zM4.725 47.959l12.724-3.754C18.241 45.6 20.411 48 26 48s7.759-2.4 8.551-3.8l12.711 3.75c.1.034 2.478.9 2.733 6.045V58H2.01v-3.951c.256-5.199 2.628-6.06 2.715-6.09z"/></svg>