<svg xmlns="http://www.w3.org/2000/svg" viewBox="0 0 384 384"><path d="M16 207.68c8.832 0 16-7.168 16-16C32 103.632 103.328 32 191 32c38.456 0 74.584 13.616 103.064 38.072H279.4c-8.832 0-16 7.168-16 16s7.168 16 16 16h52.512c8.832 0 16-7.168 16-16V33.336c0-8.832-7.168-16-16-16s-16 7.168-16 16v13.336C281.544 16.704 237.712 0 191 0 85.68 0 0 85.992 0 191.68c0 8.832 7.168 16 16 16zm352-31.36c-8.832 0-16 7.168-16 16C352 280.368 280.672 352 193 352c-38.008 0-73.752-13.28-102.072-37.2h15.368c8.832 0 16-7.168 16-16s-7.168-16-16-16h-52.52c-.144 0-.272.04-.408.04-.608.016-1.208.096-1.816.184-.448.064-.896.104-1.336.208-.528.12-1.048.312-1.568.488-.48.168-.968.312-1.432.52-.44.2-.856.456-1.28.696-.504.288-1 .568-1.472.904-.12.088-.256.136-.376.232-.272.208-.48.464-.736.688-.424.368-.848.736-1.232 1.152-.36.384-.672.784-.984 1.192-.312.408-.616.816-.896 1.248-.28.448-.52.912-.752 1.376-.232.456-.448.92-.632 1.4-.184.496-.328.992-.464 1.504-.128.488-.264.976-.344 1.48-.096.568-.136 1.136-.176 1.712-.024.328-.096.648-.096.984v52.736c0 8.832 7.168 16 16 16s16-7.168 16-16v-12.72C103.88 367.856 147.056 384 193 384c105.32 0 191-85.992 191-191.68 0-8.832-7.168-16-16-16z" fill="#3c3a41"/></svg>