<svg xmlns="http://www.w3.org/2000/svg" width="512" height="512" viewBox="0 0 768.2 768.2"><path d="M384.15 400c-110.3 0-200-89.7-200-200S273.85 0 384.25 0c110.301 0 200 89.7 200 200-.1 110.3-89.8 200-200.1 200zm0-380.2c-99.4 0-180.3 80.8-180.3 180.2 0 99.4 80.9 180.3 180.3 180.3s180.2-80.9 180.2-180.3-80.8-180.2-180.2-180.2zm362.7 748.4H21.95l-.6-121.6c0-42.3 13.9-82 40.2-114.899 25.5-31.9 61.3-54.7 100.8-64.301l1.1-.3h1.2l440.5-1.2 1.3.4c38.5 10.5 73.8 34 99.4 66.1 26.4 33.1 40.9 73.6 40.9 114.1l.1 121.7zm-705.2-19.7h685.4V646.6c0-36.1-13-72.2-36.601-101.8-22.8-28.5-53.899-49.5-87.899-59.1l-436.601 1.199c-34.8 8.7-66.4 28.9-88.9 57.101-23.5 29.399-35.9 64.8-35.9 102.5l.501 102z" data-original="#000000" class="active-path" data-old_color="#000000" fill="#FFF"/></svg>