<svg xmlns="http://www.w3.org/2000/svg" viewBox="0 0 394.4 394.4"><path d="M125.2 51.2c-22.4 0-40 12.8-40 28.8s17.6 28.8 40 28.8 40-12.8 40-28.8-17.6-28.8-40-28.8zm0 41.6c-13.6 0-24-7.2-24-12.8 0-6.4 10.4-12.8 24-12.8s24 7.2 24 12.8c0 6.4-10.4 12.8-24 12.8z"/><path d="M347.6 144h-104V80c0-44-52.8-80-118.4-80S6.8 36 6.8 80v163.2c0 36 36 68 87.2 77.6v65.6c0 4.8 3.2 8 8 8h245.6c22.4 0 40-17.6 40-40V184c0-22.4-17.6-40-40-40zM125.2 16c56.8 0 102.4 28.8 102.4 64s-45.6 64-102.4 64S22.8 115.2 22.8 80s45.6-64 102.4-64zm102.4 104v24h-32c12.8-6.4 24-14.4 32-24zM94 216v88c-41.6-8.8-71.2-32.8-71.2-60.8V120c20.8 24 58.4 40 102.4 40h222.4c13.6 0 24 10.4 24 24s-10.4 24-24 24H102c-4.8 0-8 3.2-8 8zm279.2 137.6h-1.6c0 13.6-10.4 24-24 24H338v-36.8c0-4.8-3.2-8-8-8s-8 3.2-8 8v36.8h-29.6v-36.8c0-4.8-3.2-8-8-8s-8 3.2-8 8v36.8h-29.6v-36.8c0-4.8-3.2-8-8-8s-8 3.2-8 8v36.8h-29.6v-36.8c0-4.8-3.2-8-8-8s-8 3.2-8 8v36.8h-29.6v-36.8c0-4.8-3.2-8-8-8s-8 3.2-8 8v36.8h-28V316c0-.8.8-1.6.8-1.6 0-1.6 0-2.4-.8-4V224h237.6c8.8 0 17.6-3.2 24-8v137.6z"/></svg>