<?xml version="1.0"?>
<svg xmlns="http://www.w3.org/2000/svg" xmlns:xlink="http://www.w3.org/1999/xlink" version="1.1" id="Capa_1" x="0px" y="0px" viewBox="0 0 512 512" style="enable-background:new 0 0 512 512;" xml:space="preserve" width="512px" height="512px"><g><g>
	<g>
		<path d="M501.333,42.667H138.667c-5.888,0-10.667,4.779-10.667,10.667S132.779,64,138.667,64h362.667    C507.221,64,512,59.221,512,53.333S507.221,42.667,501.333,42.667z" data-original="#000000" class="active-path" data-old_color="#000000" fill="#FFFFFF"/>
	</g>
</g><g>
	<g>
		<path d="M352,106.667H138.667c-5.888,0-10.667,4.779-10.667,10.667S132.779,128,138.667,128H352    c5.888,0,10.667-4.779,10.667-10.667S357.888,106.667,352,106.667z" data-original="#000000" class="active-path" data-old_color="#000000" fill="#FFFFFF"/>
	</g>
</g><g>
	<g>
		<path d="M501.333,213.333H138.667c-5.888,0-10.667,4.779-10.667,10.667s4.779,10.667,10.667,10.667h362.667    c5.888,0,10.667-4.779,10.667-10.667S507.221,213.333,501.333,213.333z" data-original="#000000" class="active-path" data-old_color="#000000" fill="#FFFFFF"/>
	</g>
</g><g>
	<g>
		<path d="M352,277.333H138.667c-5.888,0-10.667,4.779-10.667,10.667s4.779,10.667,10.667,10.667H352    c5.888,0,10.667-4.779,10.667-10.667S357.888,277.333,352,277.333z" data-original="#000000" class="active-path" data-old_color="#000000" fill="#FFFFFF"/>
	</g>
</g><g>
	<g>
		<path d="M501.333,384H138.667c-5.888,0-10.667,4.779-10.667,10.667s4.779,10.667,10.667,10.667h362.667    c5.888,0,10.667-4.779,10.667-10.667S507.221,384,501.333,384z" data-original="#000000" class="active-path" data-old_color="#000000" fill="#FFFFFF"/>
	</g>
</g><g>
	<g>
		<path d="M352,448H138.667c-5.888,0-10.667,4.779-10.667,10.667s4.779,10.667,10.667,10.667H352    c5.888,0,10.667-4.779,10.667-10.667S357.888,448,352,448z" data-original="#000000" class="active-path" data-old_color="#000000" fill="#FFFFFF"/>
	</g>
</g><g>
	<g>
		<circle cx="42.667" cy="85.333" r="42.667" data-original="#000000" class="active-path" data-old_color="#000000" fill="#FFFFFF"/>
	</g>
</g><g>
	<g>
		<circle cx="42.667" cy="256" r="42.667" data-original="#000000" class="active-path" data-old_color="#000000" fill="#FFFFFF"/>
	</g>
</g><g>
	<g>
		<circle cx="42.667" cy="426.667" r="42.667" data-original="#000000" class="active-path" data-old_color="#000000" fill="#FFFFFF"/>
	</g>
</g></g> </svg>
